<?xml version="1.0" encoding="UTF-8" standalone="no"?>
<!-- Created with Inkscape (http://www.inkscape.org/) -->

<svg
   width="24.141291mm"
   height="3.5699973mm"
   viewBox="0 0 24.14129 3.5699973"
   version="1.1"
   id="svg5"
   inkscape:version="1.2.2 (1:1.2.2+202212051550+b0a8486541)"
   sodipodi:docname="brand.svg"
   xmlns:inkscape="http://www.inkscape.org/namespaces/inkscape"
   xmlns:sodipodi="http://sodipodi.sourceforge.net/DTD/sodipodi-0.dtd"
   xmlns="http://www.w3.org/2000/svg"
   xmlns:svg="http://www.w3.org/2000/svg">
  <sodipodi:namedview
     id="namedview7"
     pagecolor="#ffffff"
     bordercolor="#666666"
     borderopacity="1.0"
     inkscape:showpageshadow="2"
     inkscape:pageopacity="0.0"
     inkscape:pagecheckerboard="0"
     inkscape:deskcolor="#d1d1d1"
     inkscape:document-units="mm"
     showgrid="false"
     inkscape:zoom="3.2606746"
     inkscape:cx="101.51274"
     inkscape:cy="32.50861"
     inkscape:window-width="1920"
     inkscape:window-height="1027"
     inkscape:window-x="0"
     inkscape:window-y="0"
     inkscape:window-maximized="1"
     inkscape:current-layer="layer1" />
  <defs
     id="defs2" />
  <g
     inkscape:label="Layer 1"
     inkscape:groupmode="layer"
     id="layer1"
     transform="translate(-54.541905,-51.000223)">
    <g
       aria-label="sesame"
       id="text192"
       style="font-size:7.33059px;line-height:1.25;font-family:Arial;-inkscape-font-specification:Arial;letter-spacing:0px;word-spacing:0px;fill:#552200;stroke-width:0.0381801">
      <path
         d="m 56.044676,53.126094 c 0.256571,0.05864 0.476488,0.175934 0.476488,0.403182 0,0.256571 -0.263901,0.410513 -0.608439,0.410513 -0.403182,0 -0.637761,-0.197926 -0.674414,-0.491149 h -0.696406 c 0.02199,0.725728 0.667084,1.12158 1.312176,1.12158 0.784373,0 1.363489,-0.37386 1.363489,-1.033613 0,-0.337207 -0.161273,-0.821026 -0.894332,-0.996961 l -0.527802,-0.13195 c -0.183265,-0.05131 -0.36653,-0.12462 -0.417844,-0.263901 -0.03665,-0.109959 -0.02932,-0.212588 0.02932,-0.307885 0.08064,-0.11729 0.285893,-0.190596 0.483818,-0.190596 0.234579,0 0.469158,0.109959 0.498481,0.36653 h 0.718397 c -0.03665,-0.733059 -0.645092,-1.011621 -1.2462,-1.011621 -0.6231,0 -1.187555,0.395851 -1.224208,0.901662 -0.05131,0.557125 0.212587,0.916324 0.945646,1.11425 z"
         style="font-weight:500;font-family:'Sofia Pro';-inkscape-font-specification:'Sofia Pro Medium';fill:#111111"
         id="path404" />
      <path
         d="m 61.293366,52.774225 c 0,-1.084927 -0.74772,-1.774002 -1.715358,-1.774002 -0.967638,0 -1.759342,0.689075 -1.759342,1.774002 0,1.084928 0.791704,1.795995 1.759342,1.795995 0.637761,0 1.290184,-0.271232 1.583407,-0.879671 l -0.615769,-0.271232 c -0.175934,0.315216 -0.549795,0.49115 -0.930985,0.49115 -0.557125,0 -0.967638,-0.329877 -1.048275,-0.857679 h 2.719649 c 0.0073,-0.08064 0.0073,-0.197926 0.0073,-0.278563 z m -2.72698,-0.271232 c 0.08064,-0.527802 0.483819,-0.843017 1.011622,-0.843017 0.520472,0 0.894332,0.307884 0.974968,0.843017 z"
         style="font-weight:500;font-family:'Sofia Pro';-inkscape-font-specification:'Sofia Pro Medium';fill:#111111"
         id="path406" />
      <path
         d="m 63.353258,53.126094 c 0.256571,0.05864 0.476489,0.175934 0.476489,0.403182 0,0.256571 -0.263902,0.410513 -0.608439,0.410513 -0.403183,0 -0.637762,-0.197926 -0.674415,-0.491149 h -0.696406 c 0.02199,0.725728 0.667084,1.12158 1.312176,1.12158 0.784373,0 1.36349,-0.37386 1.36349,-1.033613 0,-0.337207 -0.161273,-0.821026 -0.894332,-0.996961 l -0.527803,-0.13195 c -0.183265,-0.05131 -0.366529,-0.12462 -0.417843,-0.263901 -0.03665,-0.109959 -0.02932,-0.212588 0.02932,-0.307885 0.08064,-0.11729 0.285893,-0.190596 0.483819,-0.190596 0.234579,0 0.469158,0.109959 0.49848,0.36653 h 0.718398 c -0.03665,-0.733059 -0.645092,-1.011621 -1.246201,-1.011621 -0.6231,0 -1.187555,0.395851 -1.224208,0.901662 -0.05131,0.557125 0.212587,0.916324 0.945646,1.11425 z"
         style="font-weight:500;font-family:'Sofia Pro';-inkscape-font-specification:'Sofia Pro Medium';fill:#111111"
         id="path408" />
      <path
         d="m 67.825501,54.496914 h 0.74772 v -3.423386 h -0.74772 v 0.483819 c -0.234579,-0.388521 -0.740389,-0.557124 -1.150902,-0.557124 -0.916324,0 -1.73735,0.689075 -1.73735,1.781333 0,1.092258 0.821026,1.788664 1.73735,1.788664 0.439835,0 0.916323,-0.190596 1.150902,-0.564456 z m -2.11121,-1.722689 c 0,-0.63043 0.483819,-1.040943 1.048275,-1.040943 0.513141,0 1.055605,0.37386 1.055605,1.040943 0,0.674415 -0.498481,1.062936 -1.055605,1.062936 -0.564456,0 -1.048275,-0.432505 -1.048275,-1.062936 z"
         style="font-weight:500;font-family:'Sofia Pro';-inkscape-font-specification:'Sofia Pro Medium';fill:#111111"
         id="path410" />
      <path
         d="m 73.32869,51.740612 c 0.439835,0 0.725728,0.315216 0.725728,0.850349 v 1.905953 h 0.755051 v -1.971929 c 0,-0.974968 -0.469158,-1.524762 -1.319506,-1.524762 -0.307885,0 -0.835688,0.08797 -1.150903,0.681744 -0.197926,-0.439835 -0.527802,-0.681744 -1.077597,-0.681744 -0.278562,0 -0.843018,0.117289 -1.077596,0.586447 v -0.513142 h -0.755051 v 3.423386 h 0.755051 v -1.839978 c 0,-0.674414 0.425174,-0.916324 0.865009,-0.916324 0.410513,0 0.689076,0.307885 0.696406,0.835687 v 1.920615 h 0.755051 v -1.839978 c 0,-0.557125 0.329876,-0.916324 0.828357,-0.916324 z"
         style="font-weight:500;font-family:'Sofia Pro';-inkscape-font-specification:'Sofia Pro Medium';fill:#111111"
         id="path412" />
      <path
         d="m 78.683196,52.774225 c 0,-1.084927 -0.74772,-1.774002 -1.715358,-1.774002 -0.967638,0 -1.759341,0.689075 -1.759341,1.774002 0,1.084928 0.791703,1.795995 1.759341,1.795995 0.637762,0 1.290184,-0.271232 1.583408,-0.879671 l -0.61577,-0.271232 c -0.175934,0.315216 -0.549794,0.49115 -0.930985,0.49115 -0.557125,0 -0.967638,-0.329877 -1.048274,-0.857679 h 2.719649 c 0.0073,-0.08064 0.0073,-0.197926 0.0073,-0.278563 z m -2.726979,-0.271232 c 0.08064,-0.527802 0.483819,-0.843017 1.011621,-0.843017 0.520472,0 0.894332,0.307884 0.974969,0.843017 z"
         style="font-weight:500;font-family:'Sofia Pro';-inkscape-font-specification:'Sofia Pro Medium';fill:#111111"
         id="path414" />
    </g>
  </g>
</svg>
